<svg width="40" height="40" viewBox="0 0 40 40" fill="none" xmlns="http://www.w3.org/2000/svg">
<rect width="40" height="40" fill="#161616"/>
<g clip-path="url(#clip0_0_1)">
<rect width="40" height="40" fill="#E9E9E9"/>
<rect x="1.5" y="1.5" width="37" height="37" rx="6.5" fill="#E9E9E9" stroke="#161616" stroke-width="3"/>
<path d="M20.4999 33.432C18.8679 33.432 17.3919 33.156 16.0719 32.604C14.7759 32.028 13.6599 31.2 12.7239 30.12C11.8119 29.016 11.1039 27.66 10.5999 26.052C10.0959 24.42 9.84386 22.548 9.84386 20.436C9.84386 18.324 10.0959 16.464 10.5999 14.856C11.1039 13.248 11.8119 11.892 12.7239 10.788C13.6599 9.684 14.7759 8.856 16.0719 8.304C17.3919 7.728 18.8679 7.44 20.4999 7.44C22.1079 7.44 23.5719 7.728 24.8919 8.304C26.2119 8.856 27.3279 9.684 28.2399 10.788C29.1759 11.892 29.8959 13.248 30.3999 14.856C30.9039 16.464 31.1559 18.324 31.1559 20.436C31.1559 22.548 30.9039 24.42 30.3999 26.052C29.8959 27.66 29.1759 29.016 28.2399 30.12C27.3279 31.2 26.2119 32.028 24.8919 32.604C23.5719 33.156 22.1079 33.432 20.4999 33.432ZM20.4999 30.732C21.5799 30.732 22.5759 30.54 23.4879 30.156C24.3999 29.772 25.1799 29.22 25.8279 28.5C26.4999 27.78 27.0159 26.916 27.3759 25.908C27.7359 24.9 27.9159 23.772 27.9159 22.524V18.348C27.9159 17.1 27.7359 15.972 27.3759 14.964C27.0159 13.956 26.4999 13.092 25.8279 12.372C25.1799 11.652 24.3999 11.1 23.4879 10.716C22.5759 10.332 21.5799 10.14 20.4999 10.14C19.4199 10.14 18.4239 10.332 17.5119 10.716C16.5999 11.1 15.8079 11.652 15.1359 12.372C14.4879 13.092 13.9839 13.956 13.6239 14.964C13.2639 15.972 13.0839 17.1 13.0839 18.348V22.524C13.0839 23.772 13.2639 24.9 13.6239 25.908C13.9839 26.916 14.4879 27.78 15.1359 28.5C15.8079 29.22 16.5999 29.772 17.5119 30.156C18.4239 30.54 19.4199 30.732 20.4999 30.732Z" fill="#161616"/>
<circle cx="20.5" cy="20.5" r="2.5" fill="#161616"/>
</g>
<defs>
<clipPath id="clip0_0_1">
<rect width="40" height="40" fill="white"/>
</clipPath>
</defs>
</svg>
